# xmcd CD database file
#
# Track frame offsets:
#	150
#	16832
#	35802
#	46238
#	60750
#	79525
#	94608
#	110864
#	128629
#	144891
#	160722
#	177398
#
# Disc length: 2491 seconds
#
# Revision: 0
# Processed by: cddbd v1.5.2PL0 Copyright (c) Steve Scherf et al.
# Submitted via: CDex 1.51
#
DISCID=8c09b90c
DTITLE=los bajip de la gomera - vol.2
DYEAR=1981
DGENRE=Salsa
TTITLE0=acapulco tropical
TTITLE1=pa´ la gomera
TTITLE2=cuando decidas volver
TTITLE3=no me hables
TTITLE4=besito de mujer
TTITLE5=dum dum
TTITLE6=anselma
TTITLE7=paloma blanca
TTITLE8=vicky
TTITLE9=me gusta estar contigo
TTITLE10=cerca del rio
TTITLE11=lala
EXTD=YEAR: 1981
EXTT0=
EXTT1=
EXTT2=
EXTT3=
EXTT4=
EXTT5=
EXTT6=
EXTT7=
EXTT8=
EXTT9=
EXTT10=
EXTT11=
PLAYORDER=
